<svg width="23" height="20" viewBox="0 0 23 20" fill="none" xmlns="http://www.w3.org/2000/svg">
<path d="M3.75 0C4.19922 0 4.58594 0.319922 4.67188 0.762109L4.73047 1.25H21.1641C21.957 1.25 22.5898 2.04102 22.3672 2.83828L20.2578 10.3398C20.1055 10.8789 19.6133 11.25 19.0547 11.25H6.66797L7.02734 13.125H19.0625C19.582 13.125 20 13.543 20 14.0625C20 14.582 19.582 15 19.0625 15H6.21484C5.80078 15 5.41406 14.6797 5.32812 14.2383L2.97422 1.875H0.9375C0.419922 1.875 0 1.45508 0 0.9375C0 0.419922 0.419922 0 0.9375 0H3.75ZM5 18.125C5 17.0898 5.83984 16.25 6.875 16.25C7.91016 16.25 8.75 17.0898 8.75 18.125C8.75 19.1602 7.91016 20 6.875 20C5.83984 20 5 19.1602 5 18.125ZM20 18.125C20 19.1602 19.1602 20 18.125 20C17.0898 20 16.25 19.1602 16.25 18.125C16.25 17.0898 17.0898 16.25 18.125 16.25C19.1602 16.25 20 17.0898 20 18.125Z" fill="#F24B4B"/>
</svg>
