<svg width="15" height="16" viewBox="0 0 15 16" fill="none" xmlns="http://www.w3.org/2000/svg">
<path d="M0.636719 2.10714L0.636719 13.8929C0.636719 14.3191 0.798346 14.7279 1.08604 15.0293C1.37374 15.3307 1.76394 15.5 2.17081 15.5H13.4208C13.8277 15.5 14.2179 15.3307 14.5056 15.0293C14.7933 14.7279 14.9549 14.3191 14.9549 13.8929V9.29743H10.087V11.4068H7.79581V9.29743H6.0495C4.06317 9.29743 2.96598 8.05859 2.96598 6.16116C2.96598 5.25246 3.12067 4.30223 3.12067 4.30223H5.07024V5.34922C5.07024 6.3808 5.68132 6.70257 6.30806 6.70257H7.79581V4.39967L10.087 4.76797V6.70257H14.9549V2.10714C14.9549 1.6809 14.7933 1.27212 14.5056 0.970721C14.2179 0.669324 13.8277 0.5 13.4208 0.5H2.17081C1.76394 0.500001 1.37374 0.669324 1.08604 0.970721C0.798346 1.27212 0.636719 1.6809 0.636719 2.10714Z" fill="#212121"/>
</svg>
