<svg width="16" height="16" viewBox="0 0 16 16" fill="none" xmlns="http://www.w3.org/2000/svg">
<path d="M4.34278 8.00168C4.34278 10.13 5.98143 11.8466 8.01297 11.8466C10.0445 11.8466 11.6832 10.13 11.6832 8.00168C11.6832 5.8734 10.0445 4.15672 8.01297 4.15672C5.98143 4.15672 4.34278 5.8734 4.34278 8.00168ZM10.3991 8.00168C10.3991 9.37702 9.32899 10.5014 8.01297 10.5014C6.69694 10.5014 5.62687 9.38037 5.62687 8.00168C5.62687 6.62298 6.69694 5.50195 8.01297 5.50195C9.32899 5.50195 10.3991 6.62633 10.3991 8.00168ZM4.19265 3.10262C4.6686 3.10262 5.04871 3.50418 5.04871 3.99944C5.04871 4.49805 4.6654 4.89627 4.19265 4.89627C3.71991 4.89627 3.3366 4.4947 3.3366 3.99944C3.3366 3.50418 3.71991 3.10262 4.19265 3.10262ZM5.06149 0.556053C3.91475 0.612941 2.89899 0.887341 2.06209 1.76743C1.2252 2.64417 0.963274 3.70831 0.905778 4.90965C0.838699 6.1478 0.838699 9.8589 0.905778 11.097C0.96008 12.295 1.22201 13.3592 2.0589 14.2393C2.89579 15.1194 3.91156 15.3904 5.05829 15.4506C6.24016 15.5209 9.78258 15.5209 10.9644 15.4506C12.1112 15.3938 13.1269 15.1194 13.9638 14.2393C14.8007 13.3592 15.0627 12.2984 15.1202 11.097C15.1872 9.8589 15.1872 6.1478 15.1202 4.90965C15.0659 3.70831 14.8039 2.64417 13.9638 1.76743C13.1269 0.890688 12.1112 0.616287 10.9644 0.556053C9.78258 0.48578 6.24336 0.48578 5.06149 0.556053ZM12.2326 2.15561C12.8586 2.41662 13.341 2.92192 13.5933 3.58115C13.967 4.56832 13.8808 6.91077 13.8808 8.00168C13.8808 9.09258 13.9638 11.4384 13.5933 12.4222C13.3442 13.0781 12.8618 13.5834 12.2326 13.8477C11.2903 14.2393 9.05429 14.1489 8.01297 14.1489C6.97164 14.1489 4.73248 14.2359 3.79337 13.8477C3.1673 13.5867 2.68497 13.0814 2.43263 12.4222C2.0589 11.435 2.14514 9.09258 2.14514 8.00168C2.14514 6.91077 2.06209 4.56498 2.43263 3.58115C2.68178 2.92527 3.16411 2.41997 3.79337 2.15561C4.73567 1.76408 6.97164 1.85444 8.01297 1.85444C9.05429 1.85444 11.2935 1.76408 12.2326 2.15561Z" fill="#212121"/>
</svg>
