<svg width="16" height="16" viewBox="0 0 16 16" fill="none" xmlns="http://www.w3.org/2000/svg">
<path d="M0.863281 2.10714L0.863281 13.8929C0.863281 14.7801 1.55043 15.5 2.39737 15.5H13.6474C14.4943 15.5 15.1815 14.7801 15.1815 13.8929V2.10714C15.1815 1.21987 14.4943 0.5 13.6474 0.5H2.39737C1.55043 0.5 0.863281 1.21987 0.863281 2.10714ZM5.93857 3.74442C6.02805 3.73772 6.12074 3.73772 6.21023 3.73772C8.98118 3.73772 12.174 5.94755 12.174 9.98549C12.174 11.231 11.8288 12.3862 11.2344 13.3571C11.2536 13.1797 11.2599 13.0089 11.2599 12.8281C11.2599 11.8002 10.9276 10.856 10.3651 10.1027C10.3459 11.067 9.74183 11.8772 8.91087 12.1551C8.95881 11.817 8.95881 11.5123 8.87251 11.1641C8.67756 12.1685 7.83381 12.9219 6.81428 12.9219H6.78871C6.94531 12.6306 7.04119 12.2891 7.05398 11.9308C6.86274 12.232 6.6033 12.4789 6.29881 12.6495C5.99432 12.8201 5.65425 12.9091 5.30895 12.9085C4.91903 12.9085 4.56108 12.8013 4.25107 12.6105C5.52308 11.529 6.35405 9.90513 6.44354 8.08371C5.02131 8.39509 3.86754 7.28013 3.86754 5.94085C3.86754 5.30804 4.12003 4.73884 4.52912 4.33705C4.43963 3.84152 4.26385 3.36607 4.02415 2.9442C4.50994 3.10826 4.91903 3.45312 5.17791 3.90848C5.13317 3.46652 5.01491 3.03795 4.85192 2.64286C5.2706 2.94085 5.64134 3.31585 5.93857 3.74442Z" fill="#212121"/>
</svg>
